<?xml version="1.0" encoding="utf-8"?>
<!-- Generator: Adobe Illustrator 24.2.1, SVG Export Plug-In . SVG Version: 6.00 Build 0)  -->
<svg version="1.1" id="Capa_1" xmlns="http://www.w3.org/2000/svg" xmlns:xlink="http://www.w3.org/1999/xlink" x="0px" y="0px"
	 viewBox="0 0 556.4 553.1" style="enable-background:new 0 0 556.4 553.1;" xml:space="preserve">
<style type="text/css">
	.st0{fill:#FFFFFF;}
	.st1{fill:#3DAB6E;}
</style>
<g>
	<path class="st1" d="M357.6,342.6c-1,2.5-3.4,4.3-6.3,4.3c-3.7,0-6.8-3-6.8-6.8c0-1.9,0.8-3.5,2-4.8c1.2-1.2,2.9-2,4.8-2
		c3.7,0,6.8,3,6.8,6.8C358.1,341,357.9,341.8,357.6,342.6 M247.4,307.1c0,3.7-3,6.7-6.8,6.7c-3.7,0-6.7-3-6.7-6.7
		c0-3.7,3-6.8,6.7-6.8C244.4,300.4,247.4,303.4,247.4,307.1 M193.4,334.6c1.5,0,3,0.5,4.1,1.4c1.6,1.2,2.6,3.1,2.6,5.3
		c0,3.7-3,6.7-6.7,6.7c-2.5,0-4.6-1.3-5.8-3.3c-0.6-1-1-2.2-1-3.5C186.7,337.6,189.7,334.6,193.4,334.6 M277.5,375
		c0.5-3.3,3.3-5.8,6.7-5.8c3.4,0,6.2,2.5,6.6,5.8c0,0.3,0.1,0.6,0.1,1c0,3.7-3,6.8-6.7,6.8c-3.7,0-6.8-3-6.8-6.8
		C277.4,375.7,277.5,375.4,277.5,375 M277.2,256.5c0.3-0.2,0.6-0.4,0.9-0.5c8.4-4.6,18.1-7,28.9-7.1c2.4,0,4.8,0,7.2,0.2
		c0.8,0.1,1.6,0.2,2.4,0.3c11.1,1.1,20.5,4.2,28.4,9.3c3.5,2.3,6.8,4.9,9.8,8c9.7,10,15.9,22.5,19,38.2c-7.5,1.8-13.6,5.3-18.3,10.5
		c-2.6,2.9-4.4,6-5.8,9c-8,0.9-14.2,7.6-14.2,15.8c0,8.8,7.2,16,16,16c8.8,0,16-7.2,16-16c0-4-1.5-7.6-3.9-10.4
		c0.8-1.6,1.8-3.2,3.1-4.6c4.3-4.7,11.2-7,20.5-7.1c13,1.6,24,6.6,32.7,15c15.2,14.9,13.5,46.2,1.8,63.2
		c-8.9,13-21.9,19.1-40.8,19.2c-14.7,0.1-30.1,0.1-46.2,0.2c-5.3-0.3-22.1-2.1-33.1-13.1c-3.7-3.7-6.4-8.2-8-13.3
		c4.1-2.9,6.8-7.7,6.8-13.1c0-8.8-7.2-16-16-16c-8.8,0-16,7.2-16,16c0,6.8,4.2,12.5,10.2,14.9c2.2,8.6,6.4,15.9,12.5,22
		c1,1,2,1.9,3,2.7c-6.6,0-13.2,0-20.1,0c-37.4,0-74.4-0.1-115.4-0.1c-10.5,0-18.5-3.8-23.9-11.2c-9.7-13.4-11.4-27.9-5.3-44.6
		c4.2-11.5,13.4-18.6,28.7-22.4c8-1.3,14.7-0.1,19.7,1.8c-0.1,0.8-0.2,1.5-0.2,2.3c0,8.8,7.2,16,16,16c8.8,0,16-7.2,16-16
		c0-8.8-7.2-16-16-16c-2.4,0-4.6,0.6-6.7,1.5c-5.7-2.7-13.3-5-22.6-5c1.1-11.9,5.9-22.8,13.8-31.2c9.6-10.2,22.9-16,37.5-16.5
		c0.7,0,1.5-0.1,2.2-0.1c6.4,0,12.8,1.1,19.2,3.1c-2.1,4.5-3.8,10-3.6,15.8c-5.1,2.7-8.6,8-8.6,14.1c0,8.8,7.2,16,16,16
		c8.8,0,16-7.2,16-16c0-6.1-3.4-11.3-8.4-14c-0.8-6.2,4.6-14.3,6.6-16.8h0c0.8-0.9,7.8-11.5,21.2-19.1c0.2-0.1,0.5-0.3,0.7-0.4
		 M430,322.4c-11.1-10.8-25-17.3-41.5-19.2c0-0.1,0-0.2-0.1-0.3c-3.6-19.1-11.1-34.4-23.1-46.7c-3.7-3.9-7.8-7.2-12.2-10
		c36.2-44.6,84.4,15.1,89.2,21.2c0.3,0.3,0.4,0.5,0.4,0.5c-7.7-50.8-61.8-139.8-101.3-87.8c-10.5,13.8-21.1,21.3-30.9,24.9
		c-13.7,4-17.3-1.4-18.1-3.2c-2-6.2-3.2-12.8-3.2-19.7c0.4-3.5,1.1-6.2,1.9-8.3c1.6-3,4.4-5.9,9.3-7.3c21.9-0.9,55.2-14.8,55.2-14.8
		l3.3-0.6c1.5-0.3,3.1-0.5,4.6-0.7c0,0-8.9-12.9-22.8-10.5c0,0,2.7-0.3-13.3-4.4c-3.1-5.6-11.8-9.1-11.8-9.1c0,0,0,0,0,0
		c-7.1-2.4-18.6-6.1-25.9-1.6c-9.4,2.8-17.1,26.8-59.4,16.3c0,0,2.2,7.7,10.9,10.7c0,0,8,4.2,21.4,4.6c8.7-0.2,9.1,4.7,7.9,8.9
		c0,0.1,0,0.1-0.1,0.2c0,0.1-0.1,0.2-0.1,0.3c-0.2,0.5-0.5,1.1-0.8,1.7c-0.1,0.2-0.2,0.4-0.3,0.6c-0.6,1.1-1.2,2.2-1.8,3.4
		c-0.1,0.1-0.1,0.2-0.1,0.2c0,0,0.1-0.1,0.1-0.1c-3.7,7.3-7.7,17.1-10.8,29.3c-1.3,2.6-5.1,7.3-14.7,4.9
		c-9.4-3.8-19.6-11.2-29.6-24.4c-39.5-52-93.6,37-101.3,87.8c0,0,0.1-0.2,0.4-0.5c5.2-6.6,60.7-75.4,97.4-8.8
		c-16,1.9-30.6,9.1-41.5,20.6c-11.1,11.7-17.4,27.1-18.1,43.8c-17,5.4-28.3,15.6-33.7,30.2c-7.8,21.3-5.4,41,7.2,58.4
		c8.2,11.3,20.6,17.3,35.8,17.3c41,0.1,78,0.1,115.4,0.1c21.4,0,41.4,0,60.3-0.1c1.1,0.1,1.8,0.1,2,0.1h0v-0.1
		c15.5,0,30.3-0.1,44.6-0.2c23.6-0.1,41.4-8.7,52.9-25.6C448.9,382.3,451.1,343.1,430,322.4"/>
</g>
</svg>
